<svg xmlns="http://www.w3.org/2000/svg" width="1200" height="630" viewBox="0 0 1200 630" role="img" aria-label="Team simplifying AI adoption into one clear workflow.">
  <defs>
    <linearGradient id="bg" x1="0" y1="0" x2="1" y2="1">
      <stop offset="0" stop-color="#f4eee0"/>
      <stop offset="1" stop-color="#eef2f7"/>
    </linearGradient>
    <linearGradient id="panel" x1="0" y1="0" x2="0" y2="1">
      <stop offset="0" stop-color="#fffefb"/>
      <stop offset="1" stop-color="#f3eee3"/>
    </linearGradient>
    <linearGradient id="fade" x1="0" y1="0" x2="1" y2="0">
      <stop offset="0" stop-color="#1f2a34" stop-opacity="0.18"/>
      <stop offset="1" stop-color="#1f2a34" stop-opacity="0"/>
    </linearGradient>
  </defs>

  <rect width="1200" height="630" fill="url(#bg)"/>

  <g opacity="0.25">
    <rect x="70" y="90" width="340" height="86" rx="14" fill="#1f2a34"/>
    <rect x="92" y="112" width="220" height="14" rx="7" fill="#f8f3ea"/>
    <rect x="92" y="138" width="290" height="14" rx="7" fill="#f8f3ea"/>

    <rect x="70" y="196" width="340" height="86" rx="14" fill="#1f2a34"/>
    <rect x="92" y="218" width="260" height="14" rx="7" fill="#f8f3ea"/>
    <rect x="92" y="244" width="300" height="14" rx="7" fill="#f8f3ea"/>

    <rect x="70" y="302" width="340" height="86" rx="14" fill="#1f2a34"/>
    <rect x="92" y="324" width="240" height="14" rx="7" fill="#f8f3ea"/>
    <rect x="92" y="350" width="292" height="14" rx="7" fill="#f8f3ea"/>

    <rect x="70" y="408" width="340" height="86" rx="14" fill="#1f2a34"/>
    <rect x="92" y="430" width="272" height="14" rx="7" fill="#f8f3ea"/>
    <rect x="92" y="456" width="312" height="14" rx="7" fill="#f8f3ea"/>

    <text x="92" y="520" font-family="Inter, system-ui, Arial" font-size="22" fill="#1f2a34">AI NEWS</text>
  </g>

  <rect x="430" y="100" width="700" height="430" rx="22" fill="url(#panel)" stroke="#dfd5c4" stroke-width="2"/>

  <rect x="470" y="140" width="620" height="320" rx="18" fill="#fff" stroke="#dfd5c4" stroke-width="2"/>

  <text x="500" y="188" font-family="Inter, system-ui, Arial" font-weight="700" font-size="26" fill="#0d6b5f">One workflow</text>
  <text x="500" y="222" font-family="Inter, system-ui, Arial" font-size="18" fill="#596572">30–60–90 day cadence</text>

  <g>
    <rect x="520" y="260" width="150" height="64" rx="14" fill="#edf7f3" stroke="#cfe7de"/>
    <text x="545" y="300" font-family="Inter, system-ui, Arial" font-weight="700" font-size="18" fill="#075247">Baseline</text>

    <path d="M 676 292 L 734 292" stroke="#0d6b5f" stroke-width="6" stroke-linecap="round"/>
    <path d="M 725 278 L 748 292 L 725 306" fill="#0d6b5f"/>

    <rect x="760" y="260" width="150" height="64" rx="14" fill="#eef2f7" stroke="#d6deea"/>
    <text x="790" y="300" font-family="Inter, system-ui, Arial" font-weight="700" font-size="18" fill="#1a6fa1">Pilot</text>

    <path d="M 916 292 L 974 292" stroke="#0d6b5f" stroke-width="6" stroke-linecap="round"/>
    <path d="M 965 278 L 988 292 L 965 306" fill="#0d6b5f"/>

    <rect x="1000" y="260" width="70" height="64" rx="14" fill="#f4eee0" stroke="#dfd5c4"/>
    <text x="1010" y="300" font-family="Inter, system-ui, Arial" font-weight="800" font-size="18" fill="#d0892f">Ship</text>
  </g>

  <g>
    <circle cx="540" cy="485" r="32" fill="#1f2a34" opacity="0.08"/>
    <circle cx="540" cy="468" r="18" fill="#0d6b5f" opacity="0.9"/>
    <rect x="515" y="488" width="50" height="30" rx="14" fill="#0d6b5f" opacity="0.8"/>

    <circle cx="640" cy="485" r="32" fill="#1f2a34" opacity="0.08"/>
    <circle cx="640" cy="468" r="18" fill="#1a6fa1" opacity="0.9"/>
    <rect x="615" y="488" width="50" height="30" rx="14" fill="#1a6fa1" opacity="0.8"/>

    <circle cx="740" cy="485" r="32" fill="#1f2a34" opacity="0.08"/>
    <circle cx="740" cy="468" r="18" fill="#d0892f" opacity="0.9"/>
    <rect x="715" y="488" width="50" height="30" rx="14" fill="#d0892f" opacity="0.8"/>
  </g>

  <rect x="0" y="0" width="420" height="630" fill="url(#fade)"/>
</svg>
